<svg xmlns="http://www.w3.org/2000/svg" id="ad70582e-65f1-4084-be38-870b90097efa" data-name="Layer 1" width="57" height="47" viewBox="0 0 57 47"><title>case</title><path d="M53.879,7.2H37.6633V3.0992A3.1133,3.1133,0,0,0,34.5422,0H22.4578a3.1133,3.1133,0,0,0-3.1211,3.0992V7.2H3.1223A3.1144,3.1144,0,0,0,0,10.2993V43.9A3.1154,3.1154,0,0,0,3.1223,47H53.879A3.1151,3.1151,0,0,0,57,43.9v-33.6A3.1141,3.1141,0,0,0,53.879,7.2ZM20.7453,3.0992a1.7081,1.7081,0,0,1,1.7125-1.7005H34.5422a1.7082,1.7082,0,0,1,1.7126,1.7005V7.2h-15.51ZM55.5914,43.9a1.7091,1.7091,0,0,1-1.7124,1.7018H3.1223A1.71,1.71,0,0,1,1.4086,43.9v-20.9h8.26v6.5a.7021.7021,0,0,0,.705.7h7.2509a.7018.7018,0,0,0,.7037-.7v-6.5H38.6721v6.5a.7021.7021,0,0,0,.705.7H46.628a.7018.7018,0,0,0,.7037-.7v-6.5h8.26ZM11.0769,28.8005V22.9991h5.8424v5.8014Zm29.0038,0V22.9991h5.8424v5.8014Zm15.5107-7.2H1.4086V10.2993a1.7085,1.7085,0,0,1,1.7137-1.7H53.879a1.7081,1.7081,0,0,1,1.7124,1.7005Z" style="fill-rule:evenodd"></path></svg>