<svg xmlns="http://www.w3.org/2000/svg" id="be6b0df2-5810-4a67-af52-29d63dad40f7" data-name="Layer 1" width="48.647" height="43.9995" viewBox="0 0 48.647 43.9995"><title>Hand</title><path d="M48.575,34.8235a6.3619,6.3619,0,0,0-5.7159-3.5611,6.5338,6.5338,0,0,0-1.5783.1943L34.243,33.2224,34.2,32.8338c-.2792-2.4308-1.6968-3.8365-4.5889-4.5588L11.4751,24.2327,11.52,23.92c.0536-.3852.0969-.7543.1266-1.0972a.6933.6933,0,0,0-.2109-.5612c-1.331-1.2639-6.4053-1.99-10.7595-2.2491a.679.679,0,0,0-.46.1863A.6941.6941,0,0,0,0,20.7V39.2532a.6878.6878,0,0,0,.686.6881H6.852a.7056.7056,0,0,0,.6689-.5258l.4638-1.464,15.0681,5.0378A11.4356,11.4356,0,0,0,27.1916,44c2.025,0,4.53-.9428,9.7487-3.0891l11.3053-5.1543a.6881.6881,0,0,0,.3294-.9326ZM6.4281,38.3264l-.0752.2388H1.372V21.435l.3681.03c3.1007.2445,6.8645.8011,8.2866,1.4937l.22.1075-.03.2422C9.6678,27.8475,7.1779,35.95,6.4281,38.3264Zm29.9686,1.3211c-5.1461,2.1143-7.4217,2.976-9.2336,2.976a10,10,0,0,1-3.65-.9314L8.3881,36.6361l.0969-.3188c.8558-2.8457,2.0181-6.9566,2.6882-10.3818L11.24,25.59l18.0559,4.0229c2.4386.6114,3.4414,1.6377,3.5758,3.6628l.0183.2857-2.2472.5612a5.3787,5.3787,0,0,1-1.3287.1657,5.483,5.483,0,0,1-1.0768-.1063l-8.9215-1.7886a.6731.6731,0,0,0-.8033.5417.6859.6859,0,0,0,.5378.808l8.9169,1.7874a6.8294,6.8294,0,0,0,1.3424.1326,6.9262,6.9262,0,0,0,1.6637-.2034l10.6387-2.6674a5.0758,5.0758,0,0,1,1.2467-.1554,4.9821,4.9821,0,0,1,3.8607,1.83l.2837.3451Z" style="fill-rule:evenodd"></path><path d="M28.0489,22.8472a.7413.7413,0,0,0,.45.1528.7524.7524,0,0,0,.455-.155C29.4047,22.4964,40,14.2,40,6.5878A6.5949,6.5949,0,0,0,33.4121,0a6.5251,6.5251,0,0,0-4.6706,1.9443l-.2422.2445-.2411-.2445A6.521,6.521,0,0,0,23.5876,0,6.5948,6.5948,0,0,0,17,6.5878C17,14.2065,27.6,22.5009,28.0489,22.8472ZM23.5876,1.4814a5.0911,5.0911,0,0,1,4.29,2.3427.7413.7413,0,0,0,1.2438.0011,5.1036,5.1036,0,0,1,9.3966,2.7626c0,5.851-7.501,12.6051-9.8007,14.5358l-.2184.1833-.2184-.1833c-2.2985-1.9307-9.8-8.6815-9.8-14.5358A5.112,5.112,0,0,1,23.5876,1.4814Z" style="fill-rule:evenodd"></path></svg>