<svg xmlns="http://www.w3.org/2000/svg" id="b5fd6246-895b-4d96-8ad5-e464617cc2c8" data-name="Layer 1" width="47.4022" height="49.4998" viewBox="0 0 47.4022 49.4998"><title>People</title><path d="M15.31,18.0359h16.781a.6284.6284,0,0,0,.628-.6279,8.9833,8.9833,0,0,0-5.641-8.348l-.616-.25.4889-.4511A4.7623,4.7623,0,0,0,28.5241,4.822a4.823,4.823,0,0,0-9.646,0A4.76,4.76,0,0,0,20.451,8.3589l.49.4511-.617.25a8.9852,8.9852,0,0,0-5.641,8.348A.6276.6276,0,0,0,15.31,18.0359ZM20.1341,4.822A3.5675,3.5675,0,1,1,23.701,8.39,3.5716,3.5716,0,0,1,20.1341,4.822Zm-4.117,11.477a7.7637,7.7637,0,0,1,15.368,0l.069.481H15.9481Z" style="fill-rule:evenodd"></path><path d="M12.395,40.5237l-.617-.25.49-.45a4.7663,4.7663,0,0,0,1.573-3.5371,4.823,4.823,0,1,0-9.646,0,4.7627,4.7627,0,0,0,1.573,3.5371l.489.45-.616.25A8.9855,8.9855,0,0,0,0,48.8718a.6276.6276,0,0,0,.627.628H17.409a.6275.6275,0,0,0,.6269-.628A8.9854,8.9854,0,0,0,12.395,40.5237ZM5.45,36.2867a3.5675,3.5675,0,1,1,3.568,3.5671A3.5725,3.5725,0,0,1,5.45,36.2867ZM16.771,48.2438H1.265l.069-.481a7.7637,7.7637,0,0,1,15.368,0Z" style="fill-rule:evenodd"></path><path d="M41.7612,40.5237l-.617-.25.49-.45a4.7631,4.7631,0,0,0,1.573-3.5371,4.823,4.823,0,1,0-9.646,0,4.7663,4.7663,0,0,0,1.573,3.5371l.489.45-.616.25a8.9855,8.9855,0,0,0-5.6411,8.3481.6285.6285,0,0,0,.6281.628h16.781a.6276.6276,0,0,0,.627-.628A8.9855,8.9855,0,0,0,41.7612,40.5237Zm-6.945-4.237a3.5675,3.5675,0,1,1,3.568,3.5671A3.5725,3.5725,0,0,1,34.8162,36.2867Zm-4.185,11.9571.069-.481a7.7637,7.7637,0,0,1,15.368,0l.069.481Z" style="fill-rule:evenodd"></path><path d="M9.018,28.5235a.6274.6274,0,0,0,.627-.627V11.7425h3.568a.6275.6275,0,1,0,0-1.255H9.018a.6282.6282,0,0,0-.627.628v16.781A.6274.6274,0,0,0,9.018,28.5235Z" style="fill-rule:evenodd"></path><path d="M34.1892,11.7425h3.568v16.154a.6275.6275,0,0,0,1.255,0V11.1155a.6291.6291,0,0,0-.628-.628h-4.195a.6275.6275,0,1,0,0,1.255Z" style="fill-rule:evenodd"></path></svg>