<svg xmlns="http://www.w3.org/2000/svg" id="e06a5139-a9f2-4760-9e1d-023ab7d016ac" data-name="Layer 1" width="45" height="45" viewBox="0 0 45 45"><title>Shapes</title><path d="M34.93,17.5715C34.6882,12.8215,30.9233,9,26.5883,9H26V.7647A.765.765,0,0,0,25.2353,0H.7647A.765.765,0,0,0,0,.7647V25.2353A.765.765,0,0,0,.7647,26H9v2.4445a8.5073,8.5073,0,0,0,7.6942,8.5185l.0034.0015.1378.0058c.1913.0133.3818.03.5763.03.0077,0,.0139-.0042.0215-.0044l.8124.0344h.0491a.5858.5858,0,0,0,.0808-.0188A13.9905,13.9905,0,1,0,34.93,17.5715Zm-33.4,6.8991V1.5294H24.4706V9H17.4117A8.4946,8.4946,0,0,0,9,17.5555v6.9151Zm9,3.9739V17.5555a6.95,6.95,0,0,1,6.8823-7h9.1766c3.6409,0,6.3848,3.2676,6.7809,6.6607A13.965,13.965,0,0,0,17.7353,35.4445h-.3236A6.95,6.95,0,0,1,10.5294,28.4445ZM31,43.4445A12.4445,12.4445,0,1,1,43.4445,31,12.459,12.459,0,0,1,31,43.4445Z" style="fill-rule:evenodd"></path></svg>