<svg xmlns="http://www.w3.org/2000/svg" id="ec7a8643-365b-4bac-a5e6-7f0ceafdcba5" data-name="Layer 1" width="89.4004" height="67.4009" viewBox="0 0 89.4004 67.4009"><title>1</title><path d="M80.9,12.7a1.2015,1.2015,0,0,0-1.2-1.2h-49a1.2,1.2,0,1,0,0,2.4h49A1.2015,1.2015,0,0,0,80.9,12.7Z" style="fill:#635dff"></path><path d="M74.2,24a6.1714,6.1714,0,0,0-3.9876,1.4828L70.2,25.4717l-.0124.0111a6.201,6.201,0,1,0,0,9.4346l.0126.0113.0126-.0113A6.19,6.19,0,1,0,74.2,24ZM68.81,32.9487A3.7677,3.7677,0,1,1,70,30.2,3.781,3.781,0,0,1,68.81,32.9487ZM74.2,34a3.7692,3.7692,0,0,1-2.499-.9645,6.0972,6.0972,0,0,0,0-5.67A3.7912,3.7912,0,1,1,74.2,34Z" style="fill:#635dff"></path><path d="M56.9,25.2A1.2015,1.2015,0,0,0,55.7,24h-21a1.2,1.2,0,1,0,0,2.4h21A1.2015,1.2015,0,0,0,56.9,25.2Z" style="fill:#635dff"></path><path d="M56.2,34h-9a1.2,1.2,0,0,0,0,2.4009h9A1.2,1.2,0,0,0,56.2,34Z" style="fill:#635dff"></path><path d="M56.2,29h-15a1.2,1.2,0,1,0,0,2.4h15a1.2,1.2,0,0,0,0-2.4Z" style="fill:#635dff"></path><path d="M41.3745,46.1958a20.5979,20.5979,0,0,0-19.16-20.1191l-.102-.0074C21.645,26.0347,21.1768,26,20.7,26c-.0977,0-.1934.0068-.29.0137-.0712.0049-.1425.01-.2153.0122A20.69,20.69,0,1,0,41.3232,48.2153l.0083-.1054c.0342-.4678.0689-.9346.0689-1.4092,0-.0977-.0068-.1944-.0137-.29C41.3813,46.3394,41.3765,46.2681,41.3745,46.1958ZM32.2017,60.894a18.2621,18.2621,0,0,1-25.2393-26.23ZM8.6592,32.9663a18.3058,18.3058,0,0,1,11.5464-4.541c.0771-.002.1533-.0073.2295-.0127.0878-.0059.1757-.0122.2651-.0122.501,0,.9932.0356,1.4839.0752a18.2464,18.2464,0,0,1,16.791,17.73c.002.0771.0073.1533.0127.2285.0059.0888.0122.1767.0122.2666,0,.5-.0356.9922-.0752,1.4844A18.326,18.326,0,0,1,33.9614,59.26Z" style="fill:#635dff"></path><path d="M78.2,0h-47A11.2129,11.2129,0,0,0,20,11.2v12a1.2,1.2,0,0,0,2.4,0v-12a8.8094,8.8094,0,0,1,8.8-8.8h47A8.8094,8.8094,0,0,1,87,11.2v26a8.8094,8.8094,0,0,1-8.8,8.8h-34a1.2,1.2,0,1,0,0,2.4h34a11.2129,11.2129,0,0,0,11.2-11.2v-26A11.2129,11.2129,0,0,0,78.2,0Z" style="fill:#635dff"></path></svg>