<svg xmlns="http://www.w3.org/2000/svg" id="fedae928-1070-447d-922a-dac29338874a" data-name="Layer 1" width="62.5996" height="67.0996" viewBox="0 0 62.5996 67.0996"><title>2-2-2</title><path d="M38.8,6.1a.7929.7929,0,0,1-.5654-.2344l-2-2a.8.8,0,1,1,1.1308-1.1308l2,2A.8.8,0,0,1,38.8,6.1Z" style="fill:#635dff"></path><path d="M53.3,6.6a.8.8,0,0,1-.5654-1.3652l2-2a.8.8,0,1,1,1.1308,1.1308l-2,2A.7929.7929,0,0,1,53.3,6.6Z" style="fill:#635dff"></path><path d="M4.8,67.1A4.8051,4.8051,0,0,1,0,62.3v-32a4.8051,4.8051,0,0,1,3.8838-4.707l.1582-.0308.0034-.1606c.1226-5.0786.4551-5.3062.7481-5.5069l.1445-.08a31.4916,31.4916,0,0,1,12.7007-2.3018,69.8368,69.8368,0,0,1,14.12,1.6362c2.1748-.4385,4.2246-.7939,6.1738-1.0571l.1924-.0259-.02-.1929c-.3555-3.4209.249-6.038,1.7959-7.7792,1.498-1.6861,3.8672-2.5591,7.042-2.5938h1.0478a8.1413,8.1413,0,0,1,5.7256,2.5249c1.5557,1.751,2.1514,4.4043,1.7686,7.8867a4.3882,4.3882,0,0,1-.1182.5425l-.0547.1929.1934.0537a23.7366,23.7366,0,0,1,3.1718,1.1221l.1426.081c.2842.1953.624.4273.7412,5.8032l.003.1289.1181.05A4.8,4.8,0,0,1,62.6,30.3v32a4.8054,4.8054,0,0,1-4.8,4.8Zm27.8-1.6H57.8A3.2037,3.2037,0,0,0,61,62.3v-32a3.2,3.2,0,0,0-1.0713-2.3726l-.3379-.3027.0039.4531c.0479,5.8091-.0967,15.47-.4394,29.5367a2.83,2.83,0,0,1-.6143,2.2822c-.71.81-1.9306,1.2031-3.7334,1.2031H32.6ZM3.7441,27.292A3.201,3.201,0,0,0,1.6,30.3v32a3.2038,3.2038,0,0,0,3.2,3.2H31V61.1H8.792c-1.8023,0-3.0234-.3935-3.7334-1.2031a2.7973,2.7973,0,0,1-.6167-2.2549C4.09,43.1,3.9482,33.2437,4.0107,27.4824l.003-.2856Zm41.252,28.793A20.8482,20.8482,0,0,0,34.627,59.126l-.65.374H55.52l-.4629-.375A19.2372,19.2372,0,0,0,44.9961,56.085Zm-26,0A20.8467,20.8467,0,0,0,8.63,59.124l-.65.374L29.67,59.5l-.6079-.3711A19.2452,19.2452,0,0,0,18.9961,56.085ZM6.189,58.7412a.8348.8348,0,0,0,.0717.1l.3394-.22L6.5347,58.52a23.201,23.201,0,0,1,12.4511-4.0088A21.2134,21.2134,0,0,1,30.69,58.2773l.31.2032V20.6235l-.1606-.0322a67.327,67.327,0,0,0-13.2041-1.4844A30.4228,30.4228,0,0,0,5.9717,21.1133l-.1026.0429-.0175.11a37.2837,37.2837,0,0,0-.2134,4.03q-.0176.8819-.0274,2.0024c-.0537,6.14.0928,16.3511.4346,30.35l-.0073.1241a1.7279,1.7279,0,0,0,.04.74l.0791.249Zm38.83-4.23a21.3994,21.3994,0,0,1,12.1982,4.1075l.2227.1523.081-.2568a1.7145,1.7145,0,0,0,.04-.7412l-.0068-.1241c.3418-14.01.4883-24.2212.4346-30.3505q-.01-1.1214-.0274-2.002a37.4032,37.4032,0,0,0-.2129-4.03l-.0175-.11-.1026-.0429a22.6782,22.6782,0,0,0-2.9717-.9722l-.1279-.0337-.081.105A14.7184,14.7184,0,0,1,53.168,21.61a7.7791,7.7791,0,0,0-2.4248,3.64,6.319,6.319,0,0,0-.1817,1.0483l-.0078.0933.0664.0659A3.297,3.297,0,0,1,48.3,32.1h-4a3.2877,3.2877,0,0,1-1.56-6.188l.1279-.07-.0274-.1436c-.0293-.1523-.0595-.3027-.0957-.4467a7.8031,7.8031,0,0,0-2.373-3.648,11.38,11.38,0,0,1-1.582-1.874l-.0684-.1089-.1269.0166c-2.087.2686-3.9952.5806-5.834.9541l-.16.0322V58.4893l.3057-.1885A23.0427,23.0427,0,0,1,45.0186,54.5107ZM44.3,27.1a1.7,1.7,0,1,0,0,3.4h4a1.7,1.7,0,0,0,0-3.4Zm3.1289-1.6,1.6172-.0039.03-.1621a9.0045,9.0045,0,0,1,2.9619-4.8565c.1758-.1748.3349-.3379.4922-.5019a4.86,4.86,0,0,0,1.2558-1.89l.0362-.1079a1.4,1.4,0,0,0,.0771-.2729c.3281-2.9956-.1357-5.2192-1.3779-6.6167C51.334,9.7515,49.6426,9.12,47.2012,9.1h-.2559c-2.6982.0332-4.665.7251-5.8476,2.0571-1.2373,1.3916-1.71,3.584-1.4063,6.5171a3.808,3.808,0,0,0,1.0859,2.0288c.2247.2515.4678.5069.7364.78a9.0477,9.0477,0,0,1,2.8955,4.8491l.0293.1636,1.3906,0V18.6H43.3a.8.8,0,1,1,0-1.6h7a.8.8,0,1,1,0,1.6H47.4287Z" style="fill:#635dff"></path><path d="M46.3,4.6a.8005.8005,0,0,1-.8-.8V.8a.8.8,0,0,1,1.6,0v3A.8005.8005,0,0,1,46.3,4.6Z" style="fill:#635dff"></path><path d="M25.8,33.1006a.7948.7948,0,0,1-.4907-.169,12.0356,12.0356,0,0,0-7.3779-2.833,13.1525,13.1525,0,0,0-7.6622,2.8487.7871.7871,0,0,1-.4682.1523.8.8,0,0,1-.47-1.4477A14.7134,14.7134,0,0,1,17.936,28.49a13.5944,13.5944,0,0,1,8.3545,3.1783A.8006.8006,0,0,1,25.8,33.1006Z" style="fill:#635dff"></path><path d="M25.7993,40.1006a.7924.7924,0,0,1-.49-.169,12.0356,12.0356,0,0,0-7.3779-2.833,13.1559,13.1559,0,0,0-7.6622,2.8487.8.8,0,0,1-.9389-1.295A14.7156,14.7156,0,0,1,17.9365,35.49a13.5943,13.5943,0,0,1,8.354,3.1778.8008.8008,0,0,1-.4912,1.4326Z" style="fill:#635dff"></path><path d="M25.7993,46.1006a.7924.7924,0,0,1-.49-.169,12.038,12.038,0,0,0-7.3784-2.833,13.1465,13.1465,0,0,0-7.6617,2.8487.8.8,0,0,1-.9389-1.295A14.72,14.72,0,0,1,17.936,41.49a13.5956,13.5956,0,0,1,8.3545,3.1778.8008.8008,0,0,1-.4912,1.4326Z" style="fill:#635dff"></path><path d="M53.7988,40.1006a.7885.7885,0,0,1-.4892-.169,12.0382,12.0382,0,0,0-7.3789-2.833A13.1541,13.1541,0,0,0,38.27,39.9473a.8.8,0,0,1-.9394-1.295A14.71,14.71,0,0,1,45.9355,35.49,13.5926,13.5926,0,0,1,54.29,38.668a.8006.8006,0,0,1-.4912,1.4326Z" style="fill:#635dff"></path><path d="M53.7988,46.1006a.7885.7885,0,0,1-.4892-.169,12.04,12.04,0,0,0-7.3789-2.833A13.1452,13.1452,0,0,0,38.27,45.9473a.8.8,0,0,1-.9394-1.295A14.7173,14.7173,0,0,1,45.9355,41.49,13.5945,13.5945,0,0,1,54.29,44.668a.8006.8006,0,0,1-.4912,1.4326Z" style="fill:#635dff"></path></svg>