<svg xmlns="http://www.w3.org/2000/svg" xmlns:xlink="http://www.w3.org/1999/xlink" width="86px" height="67px" viewBox="0 0 86 67"><title>Icon 3</title><desc>Created with Sketch.</desc><g id="Design" stroke="none" stroke-width="1" fill="none" fill-rule="evenodd"><g id="Icon-3" stroke="#635DFF" stroke-width="2"><rect id="Rectangle" x="8" y="1" width="69" height="43" rx="3"></rect><rect id="Rectangle-Copy" x="13" y="7" width="58" height="32" rx="3"></rect><polygon id="Path-5" points="7.89426843 45 1 58.9996827 1 60 85 60 85 58.8465845 77.1016191 45"></polygon><path d="M85,60 L1,60 L1,64 C1,64.5522847 1.22385763,65.0522847 1.58578644,65.4142136 C1.94771525,65.7761424 2.44771525,66 3,66 L83,66 C83.5522847,66 84.0522847,65.7761424 84.4142136,65.4142136 C84.7761424,65.0522847 85,64.5522847 85,64 L85,60 Z" id="Rectangle"></path><path d="M32,59 L34.2150868,53.6193217 C34.3693575,53.2445821 34.7345423,53 35.1397943,53 L52.0076444,53 C52.4215389,53 52.7926608,53.2549779 52.9411105,53.6413344 L55,58.9998174 L55,58.9998174" id="Path-6"></path></g></g></svg>