<svg xmlns="http://www.w3.org/2000/svg" id="bfaa0605-9459-4e6b-b411-797f2c90e4c3" data-name="Layer 1" width="92" height="70" viewBox="0 0 92 70"><title>Q</title><path d="M88.0528,43.7178a13.108,13.108,0,0,0-9.8043-4.0684,18.3979,18.3979,0,0,0-5.2842,1.0977,18.2872,18.2872,0,0,1-5.1568,1.0981q-4.4567,0-4.4565-7.7495a24.8456,24.8456,0,0,1,6.8757-17.5645q4.5839-5.0368,15.4068-11.2358V0Q70.3541,4.7783,61.059,15.6274A40.8181,40.8181,0,0,0,51,43.0073a28.8713,28.8713,0,0,0,6.2391,18.4688Q63.86,70,74.1739,70a18.3546,18.3546,0,0,0,12.4146-4.7139A14.8868,14.8868,0,0,0,92,53.5977,13.662,13.662,0,0,0,88.0528,43.7178Z"></path><path d="M26.9938,39.9077a19.0477,19.0477,0,0,0-5.0295.9688,18.9562,18.9562,0,0,1-4.9022.9687q-4.2018,0-4.2018-8.395,0-16.2729,22.0279-27.8965V0A54.1393,54.1393,0,0,0,10.441,15.6274,39.93,39.93,0,0,0,0,42.749,29.0179,29.0179,0,0,0,6.3665,61.3467Q13.2422,70,23.4286,70a18.4776,18.4776,0,0,0,12.16-4.52A14.1957,14.1957,0,0,0,41,54.1143a13.8092,13.8092,0,0,0-4.0745-10.0738A13.4184,13.4184,0,0,0,26.9938,39.9077Z"></path></svg>